<?xml version="1.0" encoding="utf-8"?>
<!-- Generator: Adobe Illustrator 19.2.1, SVG Export Plug-In . SVG Version: 6.00 Build 0)  -->
<svg version="1.1" id="Layer_1" xmlns="http://www.w3.org/2000/svg" xmlns:xlink="http://www.w3.org/1999/xlink" x="0px" y="0px"
	 viewBox="0 0 143.1 24.6" style="enable-background:new 0 0 143.1 24.6;" xml:space="preserve">
<style type="text/css">
	.st0{fill:#8844EE;}
	.st1{fill:#101010;}
</style>
<path class="st0" d="M68.8,21.2c2.6-0.6,5.2-2.1,6.5-5.4H63.4v-3.2h17v1.5h-0.7h-0.1c-1,5.1-4.6,10.3-12.6,10.5
	c-1-1-1.7-1.7-1.7-1.7s-2.2,1-2.4,1.2c-5.5-1.6-8.7-6.7-8.7-11.7C54,5.3,59.4,0,66.1,0c4,0,6.8,1.2,9.2,3.4l-2,2.7
	c-1-1.1-3.6-2.9-7.1-2.9c-4.8,0-8.8,3.8-8.8,9.2c0,4.5,3.3,8,7.1,8.9L68.8,21.2z"/>
<path class="st1" d="M12.3,24.6C5.5,24.6,0,19.1,0,12.3C0,5.4,5.5,0,12.3,0c6.9,0,12.3,5.5,12.3,12.4C24.6,19.1,19.1,24.6,12.3,24.6
	z M12.3,3.2c-3.7,0-6.6,2-8,5.3C3.8,9.7,3.5,11,3.5,12.3s0.3,2.6,0.8,3.8c1.5,3.3,4.4,5.3,8,5.3c3.9,0,6.9-2.2,8.3-5.9
	c0.4-1,0.6-2.1,0.6-3.2C21.2,7.4,17.5,3.2,12.3,3.2z"/>
<path class="st1" d="M39.3,14.8c-0.7,0.3-1.5,0.4-2.3,0.4l6.6,8.8h-4.3l-7.8-11h-0.1v11H28V0.4h7.3c2.2,0,4.6,0.4,6.3,2
	C43.1,3.9,43.8,6,43.8,8C43.8,11.2,42.4,13.8,39.3,14.8z M35.1,3.6h-3.6v9.1h2.4c3.1,0,6.5-0.9,6.5-4.6C40.4,5,37.9,3.6,35.1,3.6z"
	/>
<path class="st1" d="M47,24.1V0.4h3.5v23.7H47z"/>
<path class="st1" d="M108.7,24.1v-20h-0.1l-8,20h-2.1l-8-20h-0.1v20H87V0.4h5.4l7.1,18.1l7.1-18.1h5.4v23.7H108.7z"/>
<path class="st1" d="M116,24.1V0.4h3.5v23.7H116z"/>
<path class="st1" d="M140.1,20.7c-2.6,2.6-5.7,3.4-9.2,3.4h-7.6V0.4h7.7c3.8,0,7.4,1.2,9.7,4.4c1.5,2.1,2.4,4.9,2.4,7.6
	S142.1,18.7,140.1,20.7z M139,8.7c-1.4-3.4-4.3-5.1-8-5.1h-4.2V21h4.1c5.4,0,8.7-3.1,8.7-8.6C139.7,11.1,139.4,9.9,139,8.7z"/>
<path class="st1" d="M78.8,0.4L62.6,24c1.2,0.4,2.5,0.6,3.9,0.6c0.2,0,0.3,0,0.5,0L79.5,4.9h0.1v19.2h3.5V0.4H78.8z"/>
</svg>
